<svg xmlns="http://www.w3.org/2000/svg" viewBox="0 0 1000 1000">
  <rect width="1000" height="1000" fill="#0A0A0A"/>
  <path d="M 500.9 500 L 500.8 500.8 L 500 501.4 L 498.7 501.3 L 497.7 500 L 497.9 497.9 L 500 496.3 L 503.3 496.7 L 506 500 L 505.4 505.4 L 500 509.7 L 491.3 508.7 L 484.3 500 L 485.9 485.9 L 500 474.6 L 522.8 477.2 L 541.1 500 L 536.9 536.9 L 500 566.4 L 440.3 559.7 L 392.6 500 L 403.4 403.4 L 500 326.3 L 656.2 343.8 L 780.9 500" stroke="#F4ECD8" stroke-width="1.5" fill="none" opacity="0.9"/>
  <circle cx="780.9" cy="500" r="6" fill="#E87B1C"/>
  <text x="60" y="940" font-family="ui-monospace, 'SF Mono', Menlo, monospace" font-size="16" letter-spacing="3" fill="#F4ECD8">ÆM</text>
  <text x="940" y="940" font-family="ui-monospace, 'SF Mono', Menlo, monospace" font-size="16" letter-spacing="3" fill="#F4ECD8" text-anchor="end">Heliopause</text>
  <text x="60" y="80" font-family="ui-monospace, 'SF Mono', Menlo, monospace" font-size="11" letter-spacing="3" fill="#F4ECD8" opacity="0.5">8 . 13 . 21</text>
  <text x="940" y="80" font-family="ui-monospace, 'SF Mono', Menlo, monospace" font-size="11" letter-spacing="3" fill="#F4ECD8" opacity="0.5" text-anchor="end">Spiral / 1</text>
  <text x="60" y="958" font-family="ui-monospace, 'SF Mono', Menlo, monospace" font-size="11" letter-spacing="2" fill="#F4ECD8" opacity="0.5">42:00</text>
  <text x="940" y="958" font-family="ui-monospace, 'SF Mono', Menlo, monospace" font-size="11" letter-spacing="2" fill="#F4ECD8" opacity="0.5" text-anchor="end">42 Hz</text>
</svg>