<svg xmlns="http://www.w3.org/2000/svg" viewBox="-30 -30 60 60">
  <!-- Espiral logaritmica solida, optimizada para 16x16/32x32 -->
  <path fill="none" stroke="#a89ab0" stroke-width="3" stroke-linecap="round" stroke-linejoin="round"
        d="M0.8 0.0 L0.8 0.3 L0.7 0.6 L0.4 0.9 L0.1 1.0 L-0.3 1.1 L-0.8 0.9 L-1.1 0.6 L-1.4 0.2 L-1.4 -0.4 L-1.3 -0.9 L-0.9 -1.4 L-0.3 -1.8 L0.4 -1.9 L1.1 -1.7 L1.8 -1.3 L2.3 -0.6 L2.5 0.3 L2.4 1.3 L1.9 2.2 L1.0 3.0 L-0.2 3.3 L-1.5 3.2 L-2.8 2.6 L-3.8 1.5 L-4.4 0.0 L-4.3 -1.7 L-3.6 -3.4 L-2.3 -4.8 L-0.4 -5.7 L1.9 -5.8 L4.2 -5.1 L6.1 -3.4 L7.5 -0.9 L7.8 2.0 L7.0 5.1 L4.9 7.8 L1.8 9.7 L-2.0 10.4 L-6.0 9.5 L-9.8 7.1 L-12.5 3.2 L-13.7 -1.7 L-13.0 -7.1 L-10.1 -12.2 L-5.2 -16.1 L1.1 -18.1 L8.3 -17.6 L15.1 -14.2 L20.7 -8.2 L23.8 -0.0" />
</svg>
