<svg xmlns="http://www.w3.org/2000/svg" viewBox="0 0 512 512" shape-rendering="crispEdges">
  <rect width="100%" height="100%" fill="#0d1014"/>
  <rect x="112.0" y="130.0" width="8" height="8" fill="#a6d65f"/>
  <rect x="121.0" y="130.0" width="8" height="8" fill="#a6d65f"/>
  <rect x="130.0" y="130.0" width="8" height="8" fill="#a6d65f"/>
  <rect x="139.0" y="130.0" width="8" height="8" fill="#a6d65f"/>
  <rect x="148.0" y="130.0" width="8" height="8" fill="#a6d65f"/>
  <rect x="157.0" y="130.0" width="8" height="8" fill="#a6d65f"/>
  <rect x="166.0" y="130.0" width="8" height="8" fill="#a6d65f"/>
  <rect x="175.0" y="130.0" width="8" height="8" fill="#a6d65f"/>
  <rect x="184.0" y="130.0" width="8" height="8" fill="#a6d65f"/>
  <rect x="193.0" y="130.0" width="8" height="8" fill="#a6d65f"/>
  <rect x="202.0" y="130.0" width="8" height="8" fill="#a6d65f"/>
  <rect x="211.0" y="130.0" width="8" height="8" fill="#a6d65f"/>
  <rect x="220.0" y="130.0" width="8" height="8" fill="#a6d65f"/>
  <rect x="283.0" y="130.0" width="8" height="8" fill="#a6d65f"/>
  <rect x="292.0" y="130.0" width="8" height="8" fill="#a6d65f"/>
  <rect x="301.0" y="130.0" width="8" height="8" fill="#a6d65f"/>
  <rect x="310.0" y="130.0" width="8" height="8" fill="#a6d65f"/>
  <rect x="319.0" y="130.0" width="8" height="8" fill="#a6d65f"/>
  <rect x="328.0" y="130.0" width="8" height="8" fill="#a6d65f"/>
  <rect x="337.0" y="130.0" width="8" height="8" fill="#a6d65f"/>
  <rect x="346.0" y="130.0" width="8" height="8" fill="#a6d65f"/>
  <rect x="355.0" y="130.0" width="8" height="8" fill="#a6d65f"/>
  <rect x="364.0" y="130.0" width="8" height="8" fill="#a6d65f"/>
  <rect x="373.0" y="130.0" width="8" height="8" fill="#a6d65f"/>
  <rect x="382.0" y="130.0" width="8" height="8" fill="#a6d65f"/>
  <rect x="391.0" y="130.0" width="8" height="8" fill="#a6d65f"/>
  <rect x="112.0" y="139.0" width="8" height="8" fill="#a6d65f"/>
  <rect x="121.0" y="139.0" width="8" height="8" fill="#a6d65f"/>
  <rect x="130.0" y="139.0" width="8" height="8" fill="#a6d65f"/>
  <rect x="139.0" y="139.0" width="8" height="8" fill="#a6d65f"/>
  <rect x="148.0" y="139.0" width="8" height="8" fill="#a6d65f"/>
  <rect x="157.0" y="139.0" width="8" height="8" fill="#a6d65f"/>
  <rect x="166.0" y="139.0" width="8" height="8" fill="#a6d65f"/>
  <rect x="175.0" y="139.0" width="8" height="8" fill="#a6d65f"/>
  <rect x="184.0" y="139.0" width="8" height="8" fill="#a6d65f"/>
  <rect x="193.0" y="139.0" width="8" height="8" fill="#a6d65f"/>
  <rect x="202.0" y="139.0" width="8" height="8" fill="#a6d65f"/>
  <rect x="211.0" y="139.0" width="8" height="8" fill="#a6d65f"/>
  <rect x="220.0" y="139.0" width="8" height="8" fill="#a6d65f"/>
  <rect x="283.0" y="139.0" width="8" height="8" fill="#a6d65f"/>
  <rect x="292.0" y="139.0" width="8" height="8" fill="#a6d65f"/>
  <rect x="301.0" y="139.0" width="8" height="8" fill="#a6d65f"/>
  <rect x="310.0" y="139.0" width="8" height="8" fill="#a6d65f"/>
  <rect x="319.0" y="139.0" width="8" height="8" fill="#a6d65f"/>
  <rect x="328.0" y="139.0" width="8" height="8" fill="#a6d65f"/>
  <rect x="337.0" y="139.0" width="8" height="8" fill="#a6d65f"/>
  <rect x="346.0" y="139.0" width="8" height="8" fill="#a6d65f"/>
  <rect x="355.0" y="139.0" width="8" height="8" fill="#a6d65f"/>
  <rect x="364.0" y="139.0" width="8" height="8" fill="#a6d65f"/>
  <rect x="373.0" y="139.0" width="8" height="8" fill="#a6d65f"/>
  <rect x="382.0" y="139.0" width="8" height="8" fill="#a6d65f"/>
  <rect x="391.0" y="139.0" width="8" height="8" fill="#a6d65f"/>
  <rect x="112.0" y="148.0" width="8" height="8" fill="#a6d65f"/>
  <rect x="121.0" y="148.0" width="8" height="8" fill="#a6d65f"/>
  <rect x="130.0" y="148.0" width="8" height="8" fill="#a6d65f"/>
  <rect x="139.0" y="148.0" width="8" height="8" fill="#a6d65f"/>
  <rect x="148.0" y="148.0" width="8" height="8" fill="#a6d65f"/>
  <rect x="157.0" y="148.0" width="8" height="8" fill="#a6d65f"/>
  <rect x="166.0" y="148.0" width="8" height="8" fill="#a6d65f"/>
  <rect x="175.0" y="148.0" width="8" height="8" fill="#a6d65f"/>
  <rect x="184.0" y="148.0" width="8" height="8" fill="#a6d65f"/>
  <rect x="193.0" y="148.0" width="8" height="8" fill="#a6d65f"/>
  <rect x="202.0" y="148.0" width="8" height="8" fill="#a6d65f"/>
  <rect x="211.0" y="148.0" width="8" height="8" fill="#a6d65f"/>
  <rect x="220.0" y="148.0" width="8" height="8" fill="#a6d65f"/>
  <rect x="283.0" y="148.0" width="8" height="8" fill="#a6d65f"/>
  <rect x="292.0" y="148.0" width="8" height="8" fill="#a6d65f"/>
  <rect x="301.0" y="148.0" width="8" height="8" fill="#a6d65f"/>
  <rect x="310.0" y="148.0" width="8" height="8" fill="#a6d65f"/>
  <rect x="319.0" y="148.0" width="8" height="8" fill="#a6d65f"/>
  <rect x="328.0" y="148.0" width="8" height="8" fill="#a6d65f"/>
  <rect x="337.0" y="148.0" width="8" height="8" fill="#a6d65f"/>
  <rect x="346.0" y="148.0" width="8" height="8" fill="#a6d65f"/>
  <rect x="355.0" y="148.0" width="8" height="8" fill="#a6d65f"/>
  <rect x="364.0" y="148.0" width="8" height="8" fill="#a6d65f"/>
  <rect x="373.0" y="148.0" width="8" height="8" fill="#a6d65f"/>
  <rect x="382.0" y="148.0" width="8" height="8" fill="#a6d65f"/>
  <rect x="391.0" y="148.0" width="8" height="8" fill="#a6d65f"/>
  <rect x="112.0" y="175.0" width="8" height="8" fill="#a6d65f"/>
  <rect x="121.0" y="175.0" width="8" height="8" fill="#a6d65f"/>
  <rect x="130.0" y="175.0" width="8" height="8" fill="#a6d65f"/>
  <rect x="139.0" y="175.0" width="8" height="8" fill="#a6d65f"/>
  <rect x="148.0" y="175.0" width="8" height="8" fill="#a6d65f"/>
  <rect x="157.0" y="175.0" width="8" height="8" fill="#a6d65f"/>
  <rect x="166.0" y="175.0" width="8" height="8" fill="#a6d65f"/>
  <rect x="175.0" y="175.0" width="8" height="8" fill="#a6d65f"/>
  <rect x="184.0" y="175.0" width="8" height="8" fill="#a6d65f"/>
  <rect x="193.0" y="175.0" width="8" height="8" fill="#a6d65f"/>
  <rect x="202.0" y="175.0" width="8" height="8" fill="#a6d65f"/>
  <rect x="211.0" y="175.0" width="8" height="8" fill="#a6d65f"/>
  <rect x="220.0" y="175.0" width="8" height="8" fill="#a6d65f"/>
  <rect x="283.0" y="175.0" width="8" height="8" fill="#a6d65f"/>
  <rect x="292.0" y="175.0" width="8" height="8" fill="#a6d65f"/>
  <rect x="301.0" y="175.0" width="8" height="8" fill="#a6d65f"/>
  <rect x="310.0" y="175.0" width="8" height="8" fill="#a6d65f"/>
  <rect x="319.0" y="175.0" width="8" height="8" fill="#a6d65f"/>
  <rect x="328.0" y="175.0" width="8" height="8" fill="#a6d65f"/>
  <rect x="337.0" y="175.0" width="8" height="8" fill="#a6d65f"/>
  <rect x="346.0" y="175.0" width="8" height="8" fill="#a6d65f"/>
  <rect x="355.0" y="175.0" width="8" height="8" fill="#a6d65f"/>
  <rect x="364.0" y="175.0" width="8" height="8" fill="#a6d65f"/>
  <rect x="373.0" y="175.0" width="8" height="8" fill="#a6d65f"/>
  <rect x="382.0" y="175.0" width="8" height="8" fill="#a6d65f"/>
  <rect x="391.0" y="175.0" width="8" height="8" fill="#a6d65f"/>
  <rect x="112.0" y="184.0" width="8" height="8" fill="#a6d65f"/>
  <rect x="121.0" y="184.0" width="8" height="8" fill="#a6d65f"/>
  <rect x="130.0" y="184.0" width="8" height="8" fill="#a6d65f"/>
  <rect x="139.0" y="184.0" width="8" height="8" fill="#a6d65f"/>
  <rect x="148.0" y="184.0" width="8" height="8" fill="#a6d65f"/>
  <rect x="157.0" y="184.0" width="8" height="8" fill="#a6d65f"/>
  <rect x="166.0" y="184.0" width="8" height="8" fill="#a6d65f"/>
  <rect x="175.0" y="184.0" width="8" height="8" fill="#a6d65f"/>
  <rect x="184.0" y="184.0" width="8" height="8" fill="#a6d65f"/>
  <rect x="193.0" y="184.0" width="8" height="8" fill="#a6d65f"/>
  <rect x="202.0" y="184.0" width="8" height="8" fill="#a6d65f"/>
  <rect x="211.0" y="184.0" width="8" height="8" fill="#a6d65f"/>
  <rect x="220.0" y="184.0" width="8" height="8" fill="#a6d65f"/>
  <rect x="283.0" y="184.0" width="8" height="8" fill="#a6d65f"/>
  <rect x="292.0" y="184.0" width="8" height="8" fill="#a6d65f"/>
  <rect x="301.0" y="184.0" width="8" height="8" fill="#a6d65f"/>
  <rect x="310.0" y="184.0" width="8" height="8" fill="#a6d65f"/>
  <rect x="319.0" y="184.0" width="8" height="8" fill="#a6d65f"/>
  <rect x="328.0" y="184.0" width="8" height="8" fill="#a6d65f"/>
  <rect x="337.0" y="184.0" width="8" height="8" fill="#a6d65f"/>
  <rect x="346.0" y="184.0" width="8" height="8" fill="#a6d65f"/>
  <rect x="355.0" y="184.0" width="8" height="8" fill="#a6d65f"/>
  <rect x="364.0" y="184.0" width="8" height="8" fill="#a6d65f"/>
  <rect x="373.0" y="184.0" width="8" height="8" fill="#a6d65f"/>
  <rect x="382.0" y="184.0" width="8" height="8" fill="#a6d65f"/>
  <rect x="391.0" y="184.0" width="8" height="8" fill="#a6d65f"/>
  <rect x="112.0" y="193.0" width="8" height="8" fill="#a6d65f"/>
  <rect x="121.0" y="193.0" width="8" height="8" fill="#a6d65f"/>
  <rect x="130.0" y="193.0" width="8" height="8" fill="#a6d65f"/>
  <rect x="139.0" y="193.0" width="8" height="8" fill="#a6d65f"/>
  <rect x="148.0" y="193.0" width="8" height="8" fill="#a6d65f"/>
  <rect x="157.0" y="193.0" width="8" height="8" fill="#a6d65f"/>
  <rect x="166.0" y="193.0" width="8" height="8" fill="#a6d65f"/>
  <rect x="175.0" y="193.0" width="8" height="8" fill="#a6d65f"/>
  <rect x="184.0" y="193.0" width="8" height="8" fill="#a6d65f"/>
  <rect x="193.0" y="193.0" width="8" height="8" fill="#a6d65f"/>
  <rect x="202.0" y="193.0" width="8" height="8" fill="#a6d65f"/>
  <rect x="211.0" y="193.0" width="8" height="8" fill="#a6d65f"/>
  <rect x="220.0" y="193.0" width="8" height="8" fill="#a6d65f"/>
  <rect x="283.0" y="193.0" width="8" height="8" fill="#a6d65f"/>
  <rect x="292.0" y="193.0" width="8" height="8" fill="#a6d65f"/>
  <rect x="301.0" y="193.0" width="8" height="8" fill="#a6d65f"/>
  <rect x="310.0" y="193.0" width="8" height="8" fill="#a6d65f"/>
  <rect x="319.0" y="193.0" width="8" height="8" fill="#a6d65f"/>
  <rect x="328.0" y="193.0" width="8" height="8" fill="#a6d65f"/>
  <rect x="337.0" y="193.0" width="8" height="8" fill="#a6d65f"/>
  <rect x="346.0" y="193.0" width="8" height="8" fill="#a6d65f"/>
  <rect x="355.0" y="193.0" width="8" height="8" fill="#a6d65f"/>
  <rect x="364.0" y="193.0" width="8" height="8" fill="#a6d65f"/>
  <rect x="373.0" y="193.0" width="8" height="8" fill="#a6d65f"/>
  <rect x="382.0" y="193.0" width="8" height="8" fill="#a6d65f"/>
  <rect x="391.0" y="193.0" width="8" height="8" fill="#a6d65f"/>
  <rect x="112.0" y="220.0" width="8" height="8" fill="#a6d65f"/>
  <rect x="121.0" y="220.0" width="8" height="8" fill="#a6d65f"/>
  <rect x="130.0" y="220.0" width="8" height="8" fill="#a6d65f"/>
  <rect x="139.0" y="220.0" width="8" height="8" fill="#a6d65f"/>
  <rect x="148.0" y="220.0" width="8" height="8" fill="#a6d65f"/>
  <rect x="157.0" y="220.0" width="8" height="8" fill="#a6d65f"/>
  <rect x="166.0" y="220.0" width="8" height="8" fill="#a6d65f"/>
  <rect x="175.0" y="220.0" width="8" height="8" fill="#a6d65f"/>
  <rect x="184.0" y="220.0" width="8" height="8" fill="#a6d65f"/>
  <rect x="193.0" y="220.0" width="8" height="8" fill="#a6d65f"/>
  <rect x="202.0" y="220.0" width="8" height="8" fill="#a6d65f"/>
  <rect x="211.0" y="220.0" width="8" height="8" fill="#a6d65f"/>
  <rect x="220.0" y="220.0" width="8" height="8" fill="#a6d65f"/>
  <rect x="283.0" y="220.0" width="8" height="8" fill="#a6d65f"/>
  <rect x="292.0" y="220.0" width="8" height="8" fill="#a6d65f"/>
  <rect x="301.0" y="220.0" width="8" height="8" fill="#a6d65f"/>
  <rect x="310.0" y="220.0" width="8" height="8" fill="#a6d65f"/>
  <rect x="319.0" y="220.0" width="8" height="8" fill="#a6d65f"/>
  <rect x="328.0" y="220.0" width="8" height="8" fill="#a6d65f"/>
  <rect x="337.0" y="220.0" width="8" height="8" fill="#a6d65f"/>
  <rect x="346.0" y="220.0" width="8" height="8" fill="#a6d65f"/>
  <rect x="355.0" y="220.0" width="8" height="8" fill="#a6d65f"/>
  <rect x="364.0" y="220.0" width="8" height="8" fill="#a6d65f"/>
  <rect x="373.0" y="220.0" width="8" height="8" fill="#a6d65f"/>
  <rect x="382.0" y="220.0" width="8" height="8" fill="#a6d65f"/>
  <rect x="391.0" y="220.0" width="8" height="8" fill="#a6d65f"/>
  <rect x="112.0" y="229.0" width="8" height="8" fill="#a6d65f"/>
  <rect x="121.0" y="229.0" width="8" height="8" fill="#a6d65f"/>
  <rect x="130.0" y="229.0" width="8" height="8" fill="#a6d65f"/>
  <rect x="139.0" y="229.0" width="8" height="8" fill="#a6d65f"/>
  <rect x="148.0" y="229.0" width="8" height="8" fill="#a6d65f"/>
  <rect x="157.0" y="229.0" width="8" height="8" fill="#a6d65f"/>
  <rect x="166.0" y="229.0" width="8" height="8" fill="#a6d65f"/>
  <rect x="175.0" y="229.0" width="8" height="8" fill="#a6d65f"/>
  <rect x="184.0" y="229.0" width="8" height="8" fill="#a6d65f"/>
  <rect x="193.0" y="229.0" width="8" height="8" fill="#a6d65f"/>
  <rect x="202.0" y="229.0" width="8" height="8" fill="#a6d65f"/>
  <rect x="211.0" y="229.0" width="8" height="8" fill="#a6d65f"/>
  <rect x="220.0" y="229.0" width="8" height="8" fill="#a6d65f"/>
  <rect x="283.0" y="229.0" width="8" height="8" fill="#a6d65f"/>
  <rect x="292.0" y="229.0" width="8" height="8" fill="#a6d65f"/>
  <rect x="301.0" y="229.0" width="8" height="8" fill="#a6d65f"/>
  <rect x="310.0" y="229.0" width="8" height="8" fill="#a6d65f"/>
  <rect x="319.0" y="229.0" width="8" height="8" fill="#a6d65f"/>
  <rect x="328.0" y="229.0" width="8" height="8" fill="#a6d65f"/>
  <rect x="337.0" y="229.0" width="8" height="8" fill="#a6d65f"/>
  <rect x="346.0" y="229.0" width="8" height="8" fill="#a6d65f"/>
  <rect x="355.0" y="229.0" width="8" height="8" fill="#a6d65f"/>
  <rect x="364.0" y="229.0" width="8" height="8" fill="#a6d65f"/>
  <rect x="373.0" y="229.0" width="8" height="8" fill="#a6d65f"/>
  <rect x="382.0" y="229.0" width="8" height="8" fill="#a6d65f"/>
  <rect x="391.0" y="229.0" width="8" height="8" fill="#a6d65f"/>
  <rect x="112.0" y="238.0" width="8" height="8" fill="#a6d65f"/>
  <rect x="121.0" y="238.0" width="8" height="8" fill="#a6d65f"/>
  <rect x="130.0" y="238.0" width="8" height="8" fill="#a6d65f"/>
  <rect x="139.0" y="238.0" width="8" height="8" fill="#a6d65f"/>
  <rect x="148.0" y="238.0" width="8" height="8" fill="#a6d65f"/>
  <rect x="157.0" y="238.0" width="8" height="8" fill="#a6d65f"/>
  <rect x="166.0" y="238.0" width="8" height="8" fill="#a6d65f"/>
  <rect x="175.0" y="238.0" width="8" height="8" fill="#a6d65f"/>
  <rect x="184.0" y="238.0" width="8" height="8" fill="#a6d65f"/>
  <rect x="193.0" y="238.0" width="8" height="8" fill="#a6d65f"/>
  <rect x="202.0" y="238.0" width="8" height="8" fill="#a6d65f"/>
  <rect x="211.0" y="238.0" width="8" height="8" fill="#a6d65f"/>
  <rect x="220.0" y="238.0" width="8" height="8" fill="#a6d65f"/>
  <rect x="283.0" y="238.0" width="8" height="8" fill="#a6d65f"/>
  <rect x="292.0" y="238.0" width="8" height="8" fill="#a6d65f"/>
  <rect x="301.0" y="238.0" width="8" height="8" fill="#a6d65f"/>
  <rect x="310.0" y="238.0" width="8" height="8" fill="#a6d65f"/>
  <rect x="319.0" y="238.0" width="8" height="8" fill="#a6d65f"/>
  <rect x="328.0" y="238.0" width="8" height="8" fill="#a6d65f"/>
  <rect x="337.0" y="238.0" width="8" height="8" fill="#a6d65f"/>
  <rect x="346.0" y="238.0" width="8" height="8" fill="#a6d65f"/>
  <rect x="355.0" y="238.0" width="8" height="8" fill="#a6d65f"/>
  <rect x="364.0" y="238.0" width="8" height="8" fill="#a6d65f"/>
  <rect x="373.0" y="238.0" width="8" height="8" fill="#a6d65f"/>
  <rect x="382.0" y="238.0" width="8" height="8" fill="#a6d65f"/>
  <rect x="391.0" y="238.0" width="8" height="8" fill="#a6d65f"/>
  <rect x="112.0" y="265.0" width="8" height="8" fill="#a6d65f"/>
  <rect x="121.0" y="265.0" width="8" height="8" fill="#a6d65f"/>
  <rect x="130.0" y="265.0" width="8" height="8" fill="#a6d65f"/>
  <rect x="139.0" y="265.0" width="8" height="8" fill="#a6d65f"/>
  <rect x="148.0" y="265.0" width="8" height="8" fill="#a6d65f"/>
  <rect x="157.0" y="265.0" width="8" height="8" fill="#a6d65f"/>
  <rect x="166.0" y="265.0" width="8" height="8" fill="#a6d65f"/>
  <rect x="175.0" y="265.0" width="8" height="8" fill="#a6d65f"/>
  <rect x="184.0" y="265.0" width="8" height="8" fill="#a6d65f"/>
  <rect x="193.0" y="265.0" width="8" height="8" fill="#a6d65f"/>
  <rect x="202.0" y="265.0" width="8" height="8" fill="#a6d65f"/>
  <rect x="211.0" y="265.0" width="8" height="8" fill="#a6d65f"/>
  <rect x="220.0" y="265.0" width="8" height="8" fill="#a6d65f"/>
  <rect x="283.0" y="265.0" width="8" height="8" fill="#a6d65f"/>
  <rect x="292.0" y="265.0" width="8" height="8" fill="#a6d65f"/>
  <rect x="301.0" y="265.0" width="8" height="8" fill="#a6d65f"/>
  <rect x="310.0" y="265.0" width="8" height="8" fill="#a6d65f"/>
  <rect x="319.0" y="265.0" width="8" height="8" fill="#a6d65f"/>
  <rect x="328.0" y="265.0" width="8" height="8" fill="#a6d65f"/>
  <rect x="337.0" y="265.0" width="8" height="8" fill="#a6d65f"/>
  <rect x="346.0" y="265.0" width="8" height="8" fill="#a6d65f"/>
  <rect x="355.0" y="265.0" width="8" height="8" fill="#a6d65f"/>
  <rect x="364.0" y="265.0" width="8" height="8" fill="#a6d65f"/>
  <rect x="373.0" y="265.0" width="8" height="8" fill="#a6d65f"/>
  <rect x="382.0" y="265.0" width="8" height="8" fill="#a6d65f"/>
  <rect x="391.0" y="265.0" width="8" height="8" fill="#a6d65f"/>
  <rect x="112.0" y="274.0" width="8" height="8" fill="#a6d65f"/>
  <rect x="121.0" y="274.0" width="8" height="8" fill="#a6d65f"/>
  <rect x="130.0" y="274.0" width="8" height="8" fill="#a6d65f"/>
  <rect x="139.0" y="274.0" width="8" height="8" fill="#a6d65f"/>
  <rect x="148.0" y="274.0" width="8" height="8" fill="#a6d65f"/>
  <rect x="157.0" y="274.0" width="8" height="8" fill="#a6d65f"/>
  <rect x="166.0" y="274.0" width="8" height="8" fill="#a6d65f"/>
  <rect x="175.0" y="274.0" width="8" height="8" fill="#a6d65f"/>
  <rect x="184.0" y="274.0" width="8" height="8" fill="#a6d65f"/>
  <rect x="193.0" y="274.0" width="8" height="8" fill="#a6d65f"/>
  <rect x="202.0" y="274.0" width="8" height="8" fill="#a6d65f"/>
  <rect x="211.0" y="274.0" width="8" height="8" fill="#a6d65f"/>
  <rect x="220.0" y="274.0" width="8" height="8" fill="#a6d65f"/>
  <rect x="283.0" y="274.0" width="8" height="8" fill="#a6d65f"/>
  <rect x="292.0" y="274.0" width="8" height="8" fill="#a6d65f"/>
  <rect x="301.0" y="274.0" width="8" height="8" fill="#a6d65f"/>
  <rect x="310.0" y="274.0" width="8" height="8" fill="#a6d65f"/>
  <rect x="319.0" y="274.0" width="8" height="8" fill="#a6d65f"/>
  <rect x="328.0" y="274.0" width="8" height="8" fill="#a6d65f"/>
  <rect x="337.0" y="274.0" width="8" height="8" fill="#a6d65f"/>
  <rect x="346.0" y="274.0" width="8" height="8" fill="#a6d65f"/>
  <rect x="355.0" y="274.0" width="8" height="8" fill="#a6d65f"/>
  <rect x="364.0" y="274.0" width="8" height="8" fill="#a6d65f"/>
  <rect x="373.0" y="274.0" width="8" height="8" fill="#a6d65f"/>
  <rect x="382.0" y="274.0" width="8" height="8" fill="#a6d65f"/>
  <rect x="391.0" y="274.0" width="8" height="8" fill="#a6d65f"/>
  <rect x="112.0" y="283.0" width="8" height="8" fill="#a6d65f"/>
  <rect x="121.0" y="283.0" width="8" height="8" fill="#a6d65f"/>
  <rect x="130.0" y="283.0" width="8" height="8" fill="#a6d65f"/>
  <rect x="139.0" y="283.0" width="8" height="8" fill="#a6d65f"/>
  <rect x="148.0" y="283.0" width="8" height="8" fill="#a6d65f"/>
  <rect x="157.0" y="283.0" width="8" height="8" fill="#a6d65f"/>
  <rect x="166.0" y="283.0" width="8" height="8" fill="#a6d65f"/>
  <rect x="175.0" y="283.0" width="8" height="8" fill="#a6d65f"/>
  <rect x="184.0" y="283.0" width="8" height="8" fill="#a6d65f"/>
  <rect x="193.0" y="283.0" width="8" height="8" fill="#a6d65f"/>
  <rect x="202.0" y="283.0" width="8" height="8" fill="#a6d65f"/>
  <rect x="211.0" y="283.0" width="8" height="8" fill="#a6d65f"/>
  <rect x="220.0" y="283.0" width="8" height="8" fill="#a6d65f"/>
  <rect x="283.0" y="283.0" width="8" height="8" fill="#a6d65f"/>
  <rect x="292.0" y="283.0" width="8" height="8" fill="#a6d65f"/>
  <rect x="301.0" y="283.0" width="8" height="8" fill="#a6d65f"/>
  <rect x="310.0" y="283.0" width="8" height="8" fill="#a6d65f"/>
  <rect x="319.0" y="283.0" width="8" height="8" fill="#a6d65f"/>
  <rect x="328.0" y="283.0" width="8" height="8" fill="#a6d65f"/>
  <rect x="337.0" y="283.0" width="8" height="8" fill="#a6d65f"/>
  <rect x="346.0" y="283.0" width="8" height="8" fill="#a6d65f"/>
  <rect x="355.0" y="283.0" width="8" height="8" fill="#a6d65f"/>
  <rect x="364.0" y="283.0" width="8" height="8" fill="#a6d65f"/>
  <rect x="373.0" y="283.0" width="8" height="8" fill="#a6d65f"/>
  <rect x="382.0" y="283.0" width="8" height="8" fill="#a6d65f"/>
  <rect x="391.0" y="283.0" width="8" height="8" fill="#a6d65f"/>
  <rect x="112.0" y="310.0" width="8" height="8" fill="#a6d65f"/>
  <rect x="121.0" y="310.0" width="8" height="8" fill="#a6d65f"/>
  <rect x="130.0" y="310.0" width="8" height="8" fill="#a6d65f"/>
  <rect x="139.0" y="310.0" width="8" height="8" fill="#a6d65f"/>
  <rect x="148.0" y="310.0" width="8" height="8" fill="#a6d65f"/>
  <rect x="157.0" y="310.0" width="8" height="8" fill="#a6d65f"/>
  <rect x="166.0" y="310.0" width="8" height="8" fill="#a6d65f"/>
  <rect x="175.0" y="310.0" width="8" height="8" fill="#a6d65f"/>
  <rect x="184.0" y="310.0" width="8" height="8" fill="#a6d65f"/>
  <rect x="193.0" y="310.0" width="8" height="8" fill="#a6d65f"/>
  <rect x="202.0" y="310.0" width="8" height="8" fill="#a6d65f"/>
  <rect x="211.0" y="310.0" width="8" height="8" fill="#a6d65f"/>
  <rect x="220.0" y="310.0" width="8" height="8" fill="#a6d65f"/>
  <rect x="283.0" y="310.0" width="8" height="8" fill="#a6d65f"/>
  <rect x="292.0" y="310.0" width="8" height="8" fill="#a6d65f"/>
  <rect x="301.0" y="310.0" width="8" height="8" fill="#a6d65f"/>
  <rect x="310.0" y="310.0" width="8" height="8" fill="#a6d65f"/>
  <rect x="319.0" y="310.0" width="8" height="8" fill="#a6d65f"/>
  <rect x="328.0" y="310.0" width="8" height="8" fill="#a6d65f"/>
  <rect x="337.0" y="310.0" width="8" height="8" fill="#a6d65f"/>
  <rect x="346.0" y="310.0" width="8" height="8" fill="#a6d65f"/>
  <rect x="355.0" y="310.0" width="8" height="8" fill="#a6d65f"/>
  <rect x="364.0" y="310.0" width="8" height="8" fill="#a6d65f"/>
  <rect x="373.0" y="310.0" width="8" height="8" fill="#a6d65f"/>
  <rect x="382.0" y="310.0" width="8" height="8" fill="#a6d65f"/>
  <rect x="391.0" y="310.0" width="8" height="8" fill="#a6d65f"/>
  <rect x="112.0" y="319.0" width="8" height="8" fill="#a6d65f"/>
  <rect x="121.0" y="319.0" width="8" height="8" fill="#a6d65f"/>
  <rect x="130.0" y="319.0" width="8" height="8" fill="#a6d65f"/>
  <rect x="139.0" y="319.0" width="8" height="8" fill="#a6d65f"/>
  <rect x="148.0" y="319.0" width="8" height="8" fill="#a6d65f"/>
  <rect x="157.0" y="319.0" width="8" height="8" fill="#a6d65f"/>
  <rect x="166.0" y="319.0" width="8" height="8" fill="#a6d65f"/>
  <rect x="175.0" y="319.0" width="8" height="8" fill="#a6d65f"/>
  <rect x="184.0" y="319.0" width="8" height="8" fill="#a6d65f"/>
  <rect x="193.0" y="319.0" width="8" height="8" fill="#a6d65f"/>
  <rect x="202.0" y="319.0" width="8" height="8" fill="#a6d65f"/>
  <rect x="211.0" y="319.0" width="8" height="8" fill="#a6d65f"/>
  <rect x="220.0" y="319.0" width="8" height="8" fill="#a6d65f"/>
  <rect x="283.0" y="319.0" width="8" height="8" fill="#a6d65f"/>
  <rect x="292.0" y="319.0" width="8" height="8" fill="#a6d65f"/>
  <rect x="301.0" y="319.0" width="8" height="8" fill="#a6d65f"/>
  <rect x="310.0" y="319.0" width="8" height="8" fill="#a6d65f"/>
  <rect x="319.0" y="319.0" width="8" height="8" fill="#a6d65f"/>
  <rect x="328.0" y="319.0" width="8" height="8" fill="#a6d65f"/>
  <rect x="337.0" y="319.0" width="8" height="8" fill="#a6d65f"/>
  <rect x="346.0" y="319.0" width="8" height="8" fill="#a6d65f"/>
  <rect x="355.0" y="319.0" width="8" height="8" fill="#a6d65f"/>
  <rect x="364.0" y="319.0" width="8" height="8" fill="#a6d65f"/>
  <rect x="373.0" y="319.0" width="8" height="8" fill="#a6d65f"/>
  <rect x="382.0" y="319.0" width="8" height="8" fill="#a6d65f"/>
  <rect x="391.0" y="319.0" width="8" height="8" fill="#a6d65f"/>
  <rect x="112.0" y="328.0" width="8" height="8" fill="#a6d65f"/>
  <rect x="121.0" y="328.0" width="8" height="8" fill="#a6d65f"/>
  <rect x="130.0" y="328.0" width="8" height="8" fill="#a6d65f"/>
  <rect x="139.0" y="328.0" width="8" height="8" fill="#a6d65f"/>
  <rect x="148.0" y="328.0" width="8" height="8" fill="#a6d65f"/>
  <rect x="157.0" y="328.0" width="8" height="8" fill="#a6d65f"/>
  <rect x="166.0" y="328.0" width="8" height="8" fill="#a6d65f"/>
  <rect x="175.0" y="328.0" width="8" height="8" fill="#a6d65f"/>
  <rect x="184.0" y="328.0" width="8" height="8" fill="#a6d65f"/>
  <rect x="193.0" y="328.0" width="8" height="8" fill="#a6d65f"/>
  <rect x="202.0" y="328.0" width="8" height="8" fill="#a6d65f"/>
  <rect x="211.0" y="328.0" width="8" height="8" fill="#a6d65f"/>
  <rect x="220.0" y="328.0" width="8" height="8" fill="#a6d65f"/>
  <rect x="283.0" y="328.0" width="8" height="8" fill="#a6d65f"/>
  <rect x="292.0" y="328.0" width="8" height="8" fill="#a6d65f"/>
  <rect x="301.0" y="328.0" width="8" height="8" fill="#a6d65f"/>
  <rect x="310.0" y="328.0" width="8" height="8" fill="#a6d65f"/>
  <rect x="319.0" y="328.0" width="8" height="8" fill="#a6d65f"/>
  <rect x="328.0" y="328.0" width="8" height="8" fill="#a6d65f"/>
  <rect x="337.0" y="328.0" width="8" height="8" fill="#a6d65f"/>
  <rect x="346.0" y="328.0" width="8" height="8" fill="#a6d65f"/>
  <rect x="355.0" y="328.0" width="8" height="8" fill="#a6d65f"/>
  <rect x="364.0" y="328.0" width="8" height="8" fill="#a6d65f"/>
  <rect x="373.0" y="328.0" width="8" height="8" fill="#a6d65f"/>
  <rect x="382.0" y="328.0" width="8" height="8" fill="#a6d65f"/>
  <rect x="391.0" y="328.0" width="8" height="8" fill="#a6d65f"/>
  <rect x="112.0" y="355.0" width="8" height="8" fill="#a6d65f"/>
  <rect x="121.0" y="355.0" width="8" height="8" fill="#a6d65f"/>
  <rect x="130.0" y="355.0" width="8" height="8" fill="#a6d65f"/>
  <rect x="139.0" y="355.0" width="8" height="8" fill="#a6d65f"/>
  <rect x="148.0" y="355.0" width="8" height="8" fill="#a6d65f"/>
  <rect x="157.0" y="355.0" width="8" height="8" fill="#a6d65f"/>
  <rect x="166.0" y="355.0" width="8" height="8" fill="#a6d65f"/>
  <rect x="175.0" y="355.0" width="8" height="8" fill="#a6d65f"/>
  <rect x="184.0" y="355.0" width="8" height="8" fill="#a6d65f"/>
  <rect x="193.0" y="355.0" width="8" height="8" fill="#a6d65f"/>
  <rect x="202.0" y="355.0" width="8" height="8" fill="#a6d65f"/>
  <rect x="211.0" y="355.0" width="8" height="8" fill="#a6d65f"/>
  <rect x="220.0" y="355.0" width="8" height="8" fill="#a6d65f"/>
  <rect x="229.0" y="355.0" width="8" height="8" fill="#a6d65f"/>
  <rect x="238.0" y="355.0" width="8" height="8" fill="#a6d65f"/>
  <rect x="247.0" y="355.0" width="8" height="8" fill="#a6d65f"/>
  <rect x="256.0" y="355.0" width="8" height="8" fill="#a6d65f"/>
  <rect x="265.0" y="355.0" width="8" height="8" fill="#a6d65f"/>
  <rect x="274.0" y="355.0" width="8" height="8" fill="#a6d65f"/>
  <rect x="283.0" y="355.0" width="8" height="8" fill="#a6d65f"/>
  <rect x="292.0" y="355.0" width="8" height="8" fill="#a6d65f"/>
  <rect x="301.0" y="355.0" width="8" height="8" fill="#a6d65f"/>
  <rect x="310.0" y="355.0" width="8" height="8" fill="#a6d65f"/>
  <rect x="319.0" y="355.0" width="8" height="8" fill="#a6d65f"/>
  <rect x="328.0" y="355.0" width="8" height="8" fill="#a6d65f"/>
  <rect x="337.0" y="355.0" width="8" height="8" fill="#a6d65f"/>
  <rect x="346.0" y="355.0" width="8" height="8" fill="#a6d65f"/>
  <rect x="355.0" y="355.0" width="8" height="8" fill="#a6d65f"/>
  <rect x="364.0" y="355.0" width="8" height="8" fill="#a6d65f"/>
  <rect x="373.0" y="355.0" width="8" height="8" fill="#a6d65f"/>
  <rect x="382.0" y="355.0" width="8" height="8" fill="#a6d65f"/>
  <rect x="391.0" y="355.0" width="8" height="8" fill="#a6d65f"/>
  <rect x="112.0" y="364.0" width="8" height="8" fill="#a6d65f"/>
  <rect x="121.0" y="364.0" width="8" height="8" fill="#a6d65f"/>
  <rect x="130.0" y="364.0" width="8" height="8" fill="#a6d65f"/>
  <rect x="139.0" y="364.0" width="8" height="8" fill="#a6d65f"/>
  <rect x="148.0" y="364.0" width="8" height="8" fill="#a6d65f"/>
  <rect x="157.0" y="364.0" width="8" height="8" fill="#a6d65f"/>
  <rect x="166.0" y="364.0" width="8" height="8" fill="#a6d65f"/>
  <rect x="175.0" y="364.0" width="8" height="8" fill="#a6d65f"/>
  <rect x="184.0" y="364.0" width="8" height="8" fill="#a6d65f"/>
  <rect x="193.0" y="364.0" width="8" height="8" fill="#a6d65f"/>
  <rect x="202.0" y="364.0" width="8" height="8" fill="#a6d65f"/>
  <rect x="211.0" y="364.0" width="8" height="8" fill="#a6d65f"/>
  <rect x="220.0" y="364.0" width="8" height="8" fill="#a6d65f"/>
  <rect x="229.0" y="364.0" width="8" height="8" fill="#a6d65f"/>
  <rect x="238.0" y="364.0" width="8" height="8" fill="#a6d65f"/>
  <rect x="247.0" y="364.0" width="8" height="8" fill="#a6d65f"/>
  <rect x="256.0" y="364.0" width="8" height="8" fill="#a6d65f"/>
  <rect x="265.0" y="364.0" width="8" height="8" fill="#a6d65f"/>
  <rect x="274.0" y="364.0" width="8" height="8" fill="#a6d65f"/>
  <rect x="283.0" y="364.0" width="8" height="8" fill="#a6d65f"/>
  <rect x="292.0" y="364.0" width="8" height="8" fill="#a6d65f"/>
  <rect x="301.0" y="364.0" width="8" height="8" fill="#a6d65f"/>
  <rect x="310.0" y="364.0" width="8" height="8" fill="#a6d65f"/>
  <rect x="319.0" y="364.0" width="8" height="8" fill="#a6d65f"/>
  <rect x="328.0" y="364.0" width="8" height="8" fill="#a6d65f"/>
  <rect x="337.0" y="364.0" width="8" height="8" fill="#a6d65f"/>
  <rect x="346.0" y="364.0" width="8" height="8" fill="#a6d65f"/>
  <rect x="355.0" y="364.0" width="8" height="8" fill="#a6d65f"/>
  <rect x="364.0" y="364.0" width="8" height="8" fill="#a6d65f"/>
  <rect x="373.0" y="364.0" width="8" height="8" fill="#a6d65f"/>
  <rect x="382.0" y="364.0" width="8" height="8" fill="#a6d65f"/>
  <rect x="391.0" y="364.0" width="8" height="8" fill="#a6d65f"/>
  <rect x="112.0" y="373.0" width="8" height="8" fill="#a6d65f"/>
  <rect x="121.0" y="373.0" width="8" height="8" fill="#a6d65f"/>
  <rect x="130.0" y="373.0" width="8" height="8" fill="#a6d65f"/>
  <rect x="139.0" y="373.0" width="8" height="8" fill="#a6d65f"/>
  <rect x="148.0" y="373.0" width="8" height="8" fill="#a6d65f"/>
  <rect x="157.0" y="373.0" width="8" height="8" fill="#a6d65f"/>
  <rect x="166.0" y="373.0" width="8" height="8" fill="#a6d65f"/>
  <rect x="175.0" y="373.0" width="8" height="8" fill="#a6d65f"/>
  <rect x="184.0" y="373.0" width="8" height="8" fill="#a6d65f"/>
  <rect x="193.0" y="373.0" width="8" height="8" fill="#a6d65f"/>
  <rect x="202.0" y="373.0" width="8" height="8" fill="#a6d65f"/>
  <rect x="211.0" y="373.0" width="8" height="8" fill="#a6d65f"/>
  <rect x="220.0" y="373.0" width="8" height="8" fill="#a6d65f"/>
  <rect x="229.0" y="373.0" width="8" height="8" fill="#a6d65f"/>
  <rect x="238.0" y="373.0" width="8" height="8" fill="#a6d65f"/>
  <rect x="247.0" y="373.0" width="8" height="8" fill="#a6d65f"/>
  <rect x="256.0" y="373.0" width="8" height="8" fill="#a6d65f"/>
  <rect x="265.0" y="373.0" width="8" height="8" fill="#a6d65f"/>
  <rect x="274.0" y="373.0" width="8" height="8" fill="#a6d65f"/>
  <rect x="283.0" y="373.0" width="8" height="8" fill="#a6d65f"/>
  <rect x="292.0" y="373.0" width="8" height="8" fill="#a6d65f"/>
  <rect x="301.0" y="373.0" width="8" height="8" fill="#a6d65f"/>
  <rect x="310.0" y="373.0" width="8" height="8" fill="#a6d65f"/>
  <rect x="319.0" y="373.0" width="8" height="8" fill="#a6d65f"/>
  <rect x="328.0" y="373.0" width="8" height="8" fill="#a6d65f"/>
  <rect x="337.0" y="373.0" width="8" height="8" fill="#a6d65f"/>
  <rect x="346.0" y="373.0" width="8" height="8" fill="#a6d65f"/>
  <rect x="355.0" y="373.0" width="8" height="8" fill="#a6d65f"/>
  <rect x="364.0" y="373.0" width="8" height="8" fill="#a6d65f"/>
  <rect x="373.0" y="373.0" width="8" height="8" fill="#a6d65f"/>
  <rect x="382.0" y="373.0" width="8" height="8" fill="#a6d65f"/>
  <rect x="391.0" y="373.0" width="8" height="8" fill="#a6d65f"/>
</svg>
