<svg xmlns="http://www.w3.org/2000/svg" viewBox="0 0 1024 1024" shape-rendering="crispEdges">
  <rect width="100%" height="100%" fill="#0d1014"/>
  <rect x="368.0" y="386.0" width="8" height="8" fill="#a6d65f"/>
  <rect x="377.0" y="386.0" width="8" height="8" fill="#a6d65f"/>
  <rect x="386.0" y="386.0" width="8" height="8" fill="#a6d65f"/>
  <rect x="395.0" y="386.0" width="8" height="8" fill="#a6d65f"/>
  <rect x="404.0" y="386.0" width="8" height="8" fill="#a6d65f"/>
  <rect x="413.0" y="386.0" width="8" height="8" fill="#a6d65f"/>
  <rect x="422.0" y="386.0" width="8" height="8" fill="#a6d65f"/>
  <rect x="431.0" y="386.0" width="8" height="8" fill="#a6d65f"/>
  <rect x="440.0" y="386.0" width="8" height="8" fill="#a6d65f"/>
  <rect x="449.0" y="386.0" width="8" height="8" fill="#a6d65f"/>
  <rect x="458.0" y="386.0" width="8" height="8" fill="#a6d65f"/>
  <rect x="467.0" y="386.0" width="8" height="8" fill="#a6d65f"/>
  <rect x="476.0" y="386.0" width="8" height="8" fill="#a6d65f"/>
  <rect x="539.0" y="386.0" width="8" height="8" fill="#a6d65f"/>
  <rect x="548.0" y="386.0" width="8" height="8" fill="#a6d65f"/>
  <rect x="557.0" y="386.0" width="8" height="8" fill="#a6d65f"/>
  <rect x="566.0" y="386.0" width="8" height="8" fill="#a6d65f"/>
  <rect x="575.0" y="386.0" width="8" height="8" fill="#a6d65f"/>
  <rect x="584.0" y="386.0" width="8" height="8" fill="#a6d65f"/>
  <rect x="593.0" y="386.0" width="8" height="8" fill="#a6d65f"/>
  <rect x="602.0" y="386.0" width="8" height="8" fill="#a6d65f"/>
  <rect x="611.0" y="386.0" width="8" height="8" fill="#a6d65f"/>
  <rect x="620.0" y="386.0" width="8" height="8" fill="#a6d65f"/>
  <rect x="629.0" y="386.0" width="8" height="8" fill="#a6d65f"/>
  <rect x="638.0" y="386.0" width="8" height="8" fill="#a6d65f"/>
  <rect x="647.0" y="386.0" width="8" height="8" fill="#a6d65f"/>
  <rect x="368.0" y="395.0" width="8" height="8" fill="#a6d65f"/>
  <rect x="377.0" y="395.0" width="8" height="8" fill="#a6d65f"/>
  <rect x="386.0" y="395.0" width="8" height="8" fill="#a6d65f"/>
  <rect x="395.0" y="395.0" width="8" height="8" fill="#a6d65f"/>
  <rect x="404.0" y="395.0" width="8" height="8" fill="#a6d65f"/>
  <rect x="413.0" y="395.0" width="8" height="8" fill="#a6d65f"/>
  <rect x="422.0" y="395.0" width="8" height="8" fill="#a6d65f"/>
  <rect x="431.0" y="395.0" width="8" height="8" fill="#a6d65f"/>
  <rect x="440.0" y="395.0" width="8" height="8" fill="#a6d65f"/>
  <rect x="449.0" y="395.0" width="8" height="8" fill="#a6d65f"/>
  <rect x="458.0" y="395.0" width="8" height="8" fill="#a6d65f"/>
  <rect x="467.0" y="395.0" width="8" height="8" fill="#a6d65f"/>
  <rect x="476.0" y="395.0" width="8" height="8" fill="#a6d65f"/>
  <rect x="539.0" y="395.0" width="8" height="8" fill="#a6d65f"/>
  <rect x="548.0" y="395.0" width="8" height="8" fill="#a6d65f"/>
  <rect x="557.0" y="395.0" width="8" height="8" fill="#a6d65f"/>
  <rect x="566.0" y="395.0" width="8" height="8" fill="#a6d65f"/>
  <rect x="575.0" y="395.0" width="8" height="8" fill="#a6d65f"/>
  <rect x="584.0" y="395.0" width="8" height="8" fill="#a6d65f"/>
  <rect x="593.0" y="395.0" width="8" height="8" fill="#a6d65f"/>
  <rect x="602.0" y="395.0" width="8" height="8" fill="#a6d65f"/>
  <rect x="611.0" y="395.0" width="8" height="8" fill="#a6d65f"/>
  <rect x="620.0" y="395.0" width="8" height="8" fill="#a6d65f"/>
  <rect x="629.0" y="395.0" width="8" height="8" fill="#a6d65f"/>
  <rect x="638.0" y="395.0" width="8" height="8" fill="#a6d65f"/>
  <rect x="647.0" y="395.0" width="8" height="8" fill="#a6d65f"/>
  <rect x="368.0" y="404.0" width="8" height="8" fill="#a6d65f"/>
  <rect x="377.0" y="404.0" width="8" height="8" fill="#a6d65f"/>
  <rect x="386.0" y="404.0" width="8" height="8" fill="#a6d65f"/>
  <rect x="395.0" y="404.0" width="8" height="8" fill="#a6d65f"/>
  <rect x="404.0" y="404.0" width="8" height="8" fill="#a6d65f"/>
  <rect x="413.0" y="404.0" width="8" height="8" fill="#a6d65f"/>
  <rect x="422.0" y="404.0" width="8" height="8" fill="#a6d65f"/>
  <rect x="431.0" y="404.0" width="8" height="8" fill="#a6d65f"/>
  <rect x="440.0" y="404.0" width="8" height="8" fill="#a6d65f"/>
  <rect x="449.0" y="404.0" width="8" height="8" fill="#a6d65f"/>
  <rect x="458.0" y="404.0" width="8" height="8" fill="#a6d65f"/>
  <rect x="467.0" y="404.0" width="8" height="8" fill="#a6d65f"/>
  <rect x="476.0" y="404.0" width="8" height="8" fill="#a6d65f"/>
  <rect x="539.0" y="404.0" width="8" height="8" fill="#a6d65f"/>
  <rect x="548.0" y="404.0" width="8" height="8" fill="#a6d65f"/>
  <rect x="557.0" y="404.0" width="8" height="8" fill="#a6d65f"/>
  <rect x="566.0" y="404.0" width="8" height="8" fill="#a6d65f"/>
  <rect x="575.0" y="404.0" width="8" height="8" fill="#a6d65f"/>
  <rect x="584.0" y="404.0" width="8" height="8" fill="#a6d65f"/>
  <rect x="593.0" y="404.0" width="8" height="8" fill="#a6d65f"/>
  <rect x="602.0" y="404.0" width="8" height="8" fill="#a6d65f"/>
  <rect x="611.0" y="404.0" width="8" height="8" fill="#a6d65f"/>
  <rect x="620.0" y="404.0" width="8" height="8" fill="#a6d65f"/>
  <rect x="629.0" y="404.0" width="8" height="8" fill="#a6d65f"/>
  <rect x="638.0" y="404.0" width="8" height="8" fill="#a6d65f"/>
  <rect x="647.0" y="404.0" width="8" height="8" fill="#a6d65f"/>
  <rect x="368.0" y="431.0" width="8" height="8" fill="#a6d65f"/>
  <rect x="377.0" y="431.0" width="8" height="8" fill="#a6d65f"/>
  <rect x="386.0" y="431.0" width="8" height="8" fill="#a6d65f"/>
  <rect x="395.0" y="431.0" width="8" height="8" fill="#a6d65f"/>
  <rect x="404.0" y="431.0" width="8" height="8" fill="#a6d65f"/>
  <rect x="413.0" y="431.0" width="8" height="8" fill="#a6d65f"/>
  <rect x="422.0" y="431.0" width="8" height="8" fill="#a6d65f"/>
  <rect x="431.0" y="431.0" width="8" height="8" fill="#a6d65f"/>
  <rect x="440.0" y="431.0" width="8" height="8" fill="#a6d65f"/>
  <rect x="449.0" y="431.0" width="8" height="8" fill="#a6d65f"/>
  <rect x="458.0" y="431.0" width="8" height="8" fill="#a6d65f"/>
  <rect x="467.0" y="431.0" width="8" height="8" fill="#a6d65f"/>
  <rect x="476.0" y="431.0" width="8" height="8" fill="#a6d65f"/>
  <rect x="539.0" y="431.0" width="8" height="8" fill="#a6d65f"/>
  <rect x="548.0" y="431.0" width="8" height="8" fill="#a6d65f"/>
  <rect x="557.0" y="431.0" width="8" height="8" fill="#a6d65f"/>
  <rect x="566.0" y="431.0" width="8" height="8" fill="#a6d65f"/>
  <rect x="575.0" y="431.0" width="8" height="8" fill="#a6d65f"/>
  <rect x="584.0" y="431.0" width="8" height="8" fill="#a6d65f"/>
  <rect x="593.0" y="431.0" width="8" height="8" fill="#a6d65f"/>
  <rect x="602.0" y="431.0" width="8" height="8" fill="#a6d65f"/>
  <rect x="611.0" y="431.0" width="8" height="8" fill="#a6d65f"/>
  <rect x="620.0" y="431.0" width="8" height="8" fill="#a6d65f"/>
  <rect x="629.0" y="431.0" width="8" height="8" fill="#a6d65f"/>
  <rect x="638.0" y="431.0" width="8" height="8" fill="#a6d65f"/>
  <rect x="647.0" y="431.0" width="8" height="8" fill="#a6d65f"/>
  <rect x="368.0" y="440.0" width="8" height="8" fill="#a6d65f"/>
  <rect x="377.0" y="440.0" width="8" height="8" fill="#a6d65f"/>
  <rect x="386.0" y="440.0" width="8" height="8" fill="#a6d65f"/>
  <rect x="395.0" y="440.0" width="8" height="8" fill="#a6d65f"/>
  <rect x="404.0" y="440.0" width="8" height="8" fill="#a6d65f"/>
  <rect x="413.0" y="440.0" width="8" height="8" fill="#a6d65f"/>
  <rect x="422.0" y="440.0" width="8" height="8" fill="#a6d65f"/>
  <rect x="431.0" y="440.0" width="8" height="8" fill="#a6d65f"/>
  <rect x="440.0" y="440.0" width="8" height="8" fill="#a6d65f"/>
  <rect x="449.0" y="440.0" width="8" height="8" fill="#a6d65f"/>
  <rect x="458.0" y="440.0" width="8" height="8" fill="#a6d65f"/>
  <rect x="467.0" y="440.0" width="8" height="8" fill="#a6d65f"/>
  <rect x="476.0" y="440.0" width="8" height="8" fill="#a6d65f"/>
  <rect x="539.0" y="440.0" width="8" height="8" fill="#a6d65f"/>
  <rect x="548.0" y="440.0" width="8" height="8" fill="#a6d65f"/>
  <rect x="557.0" y="440.0" width="8" height="8" fill="#a6d65f"/>
  <rect x="566.0" y="440.0" width="8" height="8" fill="#a6d65f"/>
  <rect x="575.0" y="440.0" width="8" height="8" fill="#a6d65f"/>
  <rect x="584.0" y="440.0" width="8" height="8" fill="#a6d65f"/>
  <rect x="593.0" y="440.0" width="8" height="8" fill="#a6d65f"/>
  <rect x="602.0" y="440.0" width="8" height="8" fill="#a6d65f"/>
  <rect x="611.0" y="440.0" width="8" height="8" fill="#a6d65f"/>
  <rect x="620.0" y="440.0" width="8" height="8" fill="#a6d65f"/>
  <rect x="629.0" y="440.0" width="8" height="8" fill="#a6d65f"/>
  <rect x="638.0" y="440.0" width="8" height="8" fill="#a6d65f"/>
  <rect x="647.0" y="440.0" width="8" height="8" fill="#a6d65f"/>
  <rect x="368.0" y="449.0" width="8" height="8" fill="#a6d65f"/>
  <rect x="377.0" y="449.0" width="8" height="8" fill="#a6d65f"/>
  <rect x="386.0" y="449.0" width="8" height="8" fill="#a6d65f"/>
  <rect x="395.0" y="449.0" width="8" height="8" fill="#a6d65f"/>
  <rect x="404.0" y="449.0" width="8" height="8" fill="#a6d65f"/>
  <rect x="413.0" y="449.0" width="8" height="8" fill="#a6d65f"/>
  <rect x="422.0" y="449.0" width="8" height="8" fill="#a6d65f"/>
  <rect x="431.0" y="449.0" width="8" height="8" fill="#a6d65f"/>
  <rect x="440.0" y="449.0" width="8" height="8" fill="#a6d65f"/>
  <rect x="449.0" y="449.0" width="8" height="8" fill="#a6d65f"/>
  <rect x="458.0" y="449.0" width="8" height="8" fill="#a6d65f"/>
  <rect x="467.0" y="449.0" width="8" height="8" fill="#a6d65f"/>
  <rect x="476.0" y="449.0" width="8" height="8" fill="#a6d65f"/>
  <rect x="539.0" y="449.0" width="8" height="8" fill="#a6d65f"/>
  <rect x="548.0" y="449.0" width="8" height="8" fill="#a6d65f"/>
  <rect x="557.0" y="449.0" width="8" height="8" fill="#a6d65f"/>
  <rect x="566.0" y="449.0" width="8" height="8" fill="#a6d65f"/>
  <rect x="575.0" y="449.0" width="8" height="8" fill="#a6d65f"/>
  <rect x="584.0" y="449.0" width="8" height="8" fill="#a6d65f"/>
  <rect x="593.0" y="449.0" width="8" height="8" fill="#a6d65f"/>
  <rect x="602.0" y="449.0" width="8" height="8" fill="#a6d65f"/>
  <rect x="611.0" y="449.0" width="8" height="8" fill="#a6d65f"/>
  <rect x="620.0" y="449.0" width="8" height="8" fill="#a6d65f"/>
  <rect x="629.0" y="449.0" width="8" height="8" fill="#a6d65f"/>
  <rect x="638.0" y="449.0" width="8" height="8" fill="#a6d65f"/>
  <rect x="647.0" y="449.0" width="8" height="8" fill="#a6d65f"/>
  <rect x="368.0" y="476.0" width="8" height="8" fill="#a6d65f"/>
  <rect x="377.0" y="476.0" width="8" height="8" fill="#a6d65f"/>
  <rect x="386.0" y="476.0" width="8" height="8" fill="#a6d65f"/>
  <rect x="395.0" y="476.0" width="8" height="8" fill="#a6d65f"/>
  <rect x="404.0" y="476.0" width="8" height="8" fill="#a6d65f"/>
  <rect x="413.0" y="476.0" width="8" height="8" fill="#a6d65f"/>
  <rect x="422.0" y="476.0" width="8" height="8" fill="#a6d65f"/>
  <rect x="431.0" y="476.0" width="8" height="8" fill="#a6d65f"/>
  <rect x="440.0" y="476.0" width="8" height="8" fill="#a6d65f"/>
  <rect x="449.0" y="476.0" width="8" height="8" fill="#a6d65f"/>
  <rect x="458.0" y="476.0" width="8" height="8" fill="#a6d65f"/>
  <rect x="467.0" y="476.0" width="8" height="8" fill="#a6d65f"/>
  <rect x="476.0" y="476.0" width="8" height="8" fill="#a6d65f"/>
  <rect x="539.0" y="476.0" width="8" height="8" fill="#a6d65f"/>
  <rect x="548.0" y="476.0" width="8" height="8" fill="#a6d65f"/>
  <rect x="557.0" y="476.0" width="8" height="8" fill="#a6d65f"/>
  <rect x="566.0" y="476.0" width="8" height="8" fill="#a6d65f"/>
  <rect x="575.0" y="476.0" width="8" height="8" fill="#a6d65f"/>
  <rect x="584.0" y="476.0" width="8" height="8" fill="#a6d65f"/>
  <rect x="593.0" y="476.0" width="8" height="8" fill="#a6d65f"/>
  <rect x="602.0" y="476.0" width="8" height="8" fill="#a6d65f"/>
  <rect x="611.0" y="476.0" width="8" height="8" fill="#a6d65f"/>
  <rect x="620.0" y="476.0" width="8" height="8" fill="#a6d65f"/>
  <rect x="629.0" y="476.0" width="8" height="8" fill="#a6d65f"/>
  <rect x="638.0" y="476.0" width="8" height="8" fill="#a6d65f"/>
  <rect x="647.0" y="476.0" width="8" height="8" fill="#a6d65f"/>
  <rect x="368.0" y="485.0" width="8" height="8" fill="#a6d65f"/>
  <rect x="377.0" y="485.0" width="8" height="8" fill="#a6d65f"/>
  <rect x="386.0" y="485.0" width="8" height="8" fill="#a6d65f"/>
  <rect x="395.0" y="485.0" width="8" height="8" fill="#a6d65f"/>
  <rect x="404.0" y="485.0" width="8" height="8" fill="#a6d65f"/>
  <rect x="413.0" y="485.0" width="8" height="8" fill="#a6d65f"/>
  <rect x="422.0" y="485.0" width="8" height="8" fill="#a6d65f"/>
  <rect x="431.0" y="485.0" width="8" height="8" fill="#a6d65f"/>
  <rect x="440.0" y="485.0" width="8" height="8" fill="#a6d65f"/>
  <rect x="449.0" y="485.0" width="8" height="8" fill="#a6d65f"/>
  <rect x="458.0" y="485.0" width="8" height="8" fill="#a6d65f"/>
  <rect x="467.0" y="485.0" width="8" height="8" fill="#a6d65f"/>
  <rect x="476.0" y="485.0" width="8" height="8" fill="#a6d65f"/>
  <rect x="539.0" y="485.0" width="8" height="8" fill="#a6d65f"/>
  <rect x="548.0" y="485.0" width="8" height="8" fill="#a6d65f"/>
  <rect x="557.0" y="485.0" width="8" height="8" fill="#a6d65f"/>
  <rect x="566.0" y="485.0" width="8" height="8" fill="#a6d65f"/>
  <rect x="575.0" y="485.0" width="8" height="8" fill="#a6d65f"/>
  <rect x="584.0" y="485.0" width="8" height="8" fill="#a6d65f"/>
  <rect x="593.0" y="485.0" width="8" height="8" fill="#a6d65f"/>
  <rect x="602.0" y="485.0" width="8" height="8" fill="#a6d65f"/>
  <rect x="611.0" y="485.0" width="8" height="8" fill="#a6d65f"/>
  <rect x="620.0" y="485.0" width="8" height="8" fill="#a6d65f"/>
  <rect x="629.0" y="485.0" width="8" height="8" fill="#a6d65f"/>
  <rect x="638.0" y="485.0" width="8" height="8" fill="#a6d65f"/>
  <rect x="647.0" y="485.0" width="8" height="8" fill="#a6d65f"/>
  <rect x="368.0" y="494.0" width="8" height="8" fill="#a6d65f"/>
  <rect x="377.0" y="494.0" width="8" height="8" fill="#a6d65f"/>
  <rect x="386.0" y="494.0" width="8" height="8" fill="#a6d65f"/>
  <rect x="395.0" y="494.0" width="8" height="8" fill="#a6d65f"/>
  <rect x="404.0" y="494.0" width="8" height="8" fill="#a6d65f"/>
  <rect x="413.0" y="494.0" width="8" height="8" fill="#a6d65f"/>
  <rect x="422.0" y="494.0" width="8" height="8" fill="#a6d65f"/>
  <rect x="431.0" y="494.0" width="8" height="8" fill="#a6d65f"/>
  <rect x="440.0" y="494.0" width="8" height="8" fill="#a6d65f"/>
  <rect x="449.0" y="494.0" width="8" height="8" fill="#a6d65f"/>
  <rect x="458.0" y="494.0" width="8" height="8" fill="#a6d65f"/>
  <rect x="467.0" y="494.0" width="8" height="8" fill="#a6d65f"/>
  <rect x="476.0" y="494.0" width="8" height="8" fill="#a6d65f"/>
  <rect x="539.0" y="494.0" width="8" height="8" fill="#a6d65f"/>
  <rect x="548.0" y="494.0" width="8" height="8" fill="#a6d65f"/>
  <rect x="557.0" y="494.0" width="8" height="8" fill="#a6d65f"/>
  <rect x="566.0" y="494.0" width="8" height="8" fill="#a6d65f"/>
  <rect x="575.0" y="494.0" width="8" height="8" fill="#a6d65f"/>
  <rect x="584.0" y="494.0" width="8" height="8" fill="#a6d65f"/>
  <rect x="593.0" y="494.0" width="8" height="8" fill="#a6d65f"/>
  <rect x="602.0" y="494.0" width="8" height="8" fill="#a6d65f"/>
  <rect x="611.0" y="494.0" width="8" height="8" fill="#a6d65f"/>
  <rect x="620.0" y="494.0" width="8" height="8" fill="#a6d65f"/>
  <rect x="629.0" y="494.0" width="8" height="8" fill="#a6d65f"/>
  <rect x="638.0" y="494.0" width="8" height="8" fill="#a6d65f"/>
  <rect x="647.0" y="494.0" width="8" height="8" fill="#a6d65f"/>
  <rect x="368.0" y="521.0" width="8" height="8" fill="#a6d65f"/>
  <rect x="377.0" y="521.0" width="8" height="8" fill="#a6d65f"/>
  <rect x="386.0" y="521.0" width="8" height="8" fill="#a6d65f"/>
  <rect x="395.0" y="521.0" width="8" height="8" fill="#a6d65f"/>
  <rect x="404.0" y="521.0" width="8" height="8" fill="#a6d65f"/>
  <rect x="413.0" y="521.0" width="8" height="8" fill="#a6d65f"/>
  <rect x="422.0" y="521.0" width="8" height="8" fill="#a6d65f"/>
  <rect x="431.0" y="521.0" width="8" height="8" fill="#a6d65f"/>
  <rect x="440.0" y="521.0" width="8" height="8" fill="#a6d65f"/>
  <rect x="449.0" y="521.0" width="8" height="8" fill="#a6d65f"/>
  <rect x="458.0" y="521.0" width="8" height="8" fill="#a6d65f"/>
  <rect x="467.0" y="521.0" width="8" height="8" fill="#a6d65f"/>
  <rect x="476.0" y="521.0" width="8" height="8" fill="#a6d65f"/>
  <rect x="539.0" y="521.0" width="8" height="8" fill="#a6d65f"/>
  <rect x="548.0" y="521.0" width="8" height="8" fill="#a6d65f"/>
  <rect x="557.0" y="521.0" width="8" height="8" fill="#a6d65f"/>
  <rect x="566.0" y="521.0" width="8" height="8" fill="#a6d65f"/>
  <rect x="575.0" y="521.0" width="8" height="8" fill="#a6d65f"/>
  <rect x="584.0" y="521.0" width="8" height="8" fill="#a6d65f"/>
  <rect x="593.0" y="521.0" width="8" height="8" fill="#a6d65f"/>
  <rect x="602.0" y="521.0" width="8" height="8" fill="#a6d65f"/>
  <rect x="611.0" y="521.0" width="8" height="8" fill="#a6d65f"/>
  <rect x="620.0" y="521.0" width="8" height="8" fill="#a6d65f"/>
  <rect x="629.0" y="521.0" width="8" height="8" fill="#a6d65f"/>
  <rect x="638.0" y="521.0" width="8" height="8" fill="#a6d65f"/>
  <rect x="647.0" y="521.0" width="8" height="8" fill="#a6d65f"/>
  <rect x="368.0" y="530.0" width="8" height="8" fill="#a6d65f"/>
  <rect x="377.0" y="530.0" width="8" height="8" fill="#a6d65f"/>
  <rect x="386.0" y="530.0" width="8" height="8" fill="#a6d65f"/>
  <rect x="395.0" y="530.0" width="8" height="8" fill="#a6d65f"/>
  <rect x="404.0" y="530.0" width="8" height="8" fill="#a6d65f"/>
  <rect x="413.0" y="530.0" width="8" height="8" fill="#a6d65f"/>
  <rect x="422.0" y="530.0" width="8" height="8" fill="#a6d65f"/>
  <rect x="431.0" y="530.0" width="8" height="8" fill="#a6d65f"/>
  <rect x="440.0" y="530.0" width="8" height="8" fill="#a6d65f"/>
  <rect x="449.0" y="530.0" width="8" height="8" fill="#a6d65f"/>
  <rect x="458.0" y="530.0" width="8" height="8" fill="#a6d65f"/>
  <rect x="467.0" y="530.0" width="8" height="8" fill="#a6d65f"/>
  <rect x="476.0" y="530.0" width="8" height="8" fill="#a6d65f"/>
  <rect x="539.0" y="530.0" width="8" height="8" fill="#a6d65f"/>
  <rect x="548.0" y="530.0" width="8" height="8" fill="#a6d65f"/>
  <rect x="557.0" y="530.0" width="8" height="8" fill="#a6d65f"/>
  <rect x="566.0" y="530.0" width="8" height="8" fill="#a6d65f"/>
  <rect x="575.0" y="530.0" width="8" height="8" fill="#a6d65f"/>
  <rect x="584.0" y="530.0" width="8" height="8" fill="#a6d65f"/>
  <rect x="593.0" y="530.0" width="8" height="8" fill="#a6d65f"/>
  <rect x="602.0" y="530.0" width="8" height="8" fill="#a6d65f"/>
  <rect x="611.0" y="530.0" width="8" height="8" fill="#a6d65f"/>
  <rect x="620.0" y="530.0" width="8" height="8" fill="#a6d65f"/>
  <rect x="629.0" y="530.0" width="8" height="8" fill="#a6d65f"/>
  <rect x="638.0" y="530.0" width="8" height="8" fill="#a6d65f"/>
  <rect x="647.0" y="530.0" width="8" height="8" fill="#a6d65f"/>
  <rect x="368.0" y="539.0" width="8" height="8" fill="#a6d65f"/>
  <rect x="377.0" y="539.0" width="8" height="8" fill="#a6d65f"/>
  <rect x="386.0" y="539.0" width="8" height="8" fill="#a6d65f"/>
  <rect x="395.0" y="539.0" width="8" height="8" fill="#a6d65f"/>
  <rect x="404.0" y="539.0" width="8" height="8" fill="#a6d65f"/>
  <rect x="413.0" y="539.0" width="8" height="8" fill="#a6d65f"/>
  <rect x="422.0" y="539.0" width="8" height="8" fill="#a6d65f"/>
  <rect x="431.0" y="539.0" width="8" height="8" fill="#a6d65f"/>
  <rect x="440.0" y="539.0" width="8" height="8" fill="#a6d65f"/>
  <rect x="449.0" y="539.0" width="8" height="8" fill="#a6d65f"/>
  <rect x="458.0" y="539.0" width="8" height="8" fill="#a6d65f"/>
  <rect x="467.0" y="539.0" width="8" height="8" fill="#a6d65f"/>
  <rect x="476.0" y="539.0" width="8" height="8" fill="#a6d65f"/>
  <rect x="539.0" y="539.0" width="8" height="8" fill="#a6d65f"/>
  <rect x="548.0" y="539.0" width="8" height="8" fill="#a6d65f"/>
  <rect x="557.0" y="539.0" width="8" height="8" fill="#a6d65f"/>
  <rect x="566.0" y="539.0" width="8" height="8" fill="#a6d65f"/>
  <rect x="575.0" y="539.0" width="8" height="8" fill="#a6d65f"/>
  <rect x="584.0" y="539.0" width="8" height="8" fill="#a6d65f"/>
  <rect x="593.0" y="539.0" width="8" height="8" fill="#a6d65f"/>
  <rect x="602.0" y="539.0" width="8" height="8" fill="#a6d65f"/>
  <rect x="611.0" y="539.0" width="8" height="8" fill="#a6d65f"/>
  <rect x="620.0" y="539.0" width="8" height="8" fill="#a6d65f"/>
  <rect x="629.0" y="539.0" width="8" height="8" fill="#a6d65f"/>
  <rect x="638.0" y="539.0" width="8" height="8" fill="#a6d65f"/>
  <rect x="647.0" y="539.0" width="8" height="8" fill="#a6d65f"/>
  <rect x="368.0" y="566.0" width="8" height="8" fill="#a6d65f"/>
  <rect x="377.0" y="566.0" width="8" height="8" fill="#a6d65f"/>
  <rect x="386.0" y="566.0" width="8" height="8" fill="#a6d65f"/>
  <rect x="395.0" y="566.0" width="8" height="8" fill="#a6d65f"/>
  <rect x="404.0" y="566.0" width="8" height="8" fill="#a6d65f"/>
  <rect x="413.0" y="566.0" width="8" height="8" fill="#a6d65f"/>
  <rect x="422.0" y="566.0" width="8" height="8" fill="#a6d65f"/>
  <rect x="431.0" y="566.0" width="8" height="8" fill="#a6d65f"/>
  <rect x="440.0" y="566.0" width="8" height="8" fill="#a6d65f"/>
  <rect x="449.0" y="566.0" width="8" height="8" fill="#a6d65f"/>
  <rect x="458.0" y="566.0" width="8" height="8" fill="#a6d65f"/>
  <rect x="467.0" y="566.0" width="8" height="8" fill="#a6d65f"/>
  <rect x="476.0" y="566.0" width="8" height="8" fill="#a6d65f"/>
  <rect x="539.0" y="566.0" width="8" height="8" fill="#a6d65f"/>
  <rect x="548.0" y="566.0" width="8" height="8" fill="#a6d65f"/>
  <rect x="557.0" y="566.0" width="8" height="8" fill="#a6d65f"/>
  <rect x="566.0" y="566.0" width="8" height="8" fill="#a6d65f"/>
  <rect x="575.0" y="566.0" width="8" height="8" fill="#a6d65f"/>
  <rect x="584.0" y="566.0" width="8" height="8" fill="#a6d65f"/>
  <rect x="593.0" y="566.0" width="8" height="8" fill="#a6d65f"/>
  <rect x="602.0" y="566.0" width="8" height="8" fill="#a6d65f"/>
  <rect x="611.0" y="566.0" width="8" height="8" fill="#a6d65f"/>
  <rect x="620.0" y="566.0" width="8" height="8" fill="#a6d65f"/>
  <rect x="629.0" y="566.0" width="8" height="8" fill="#a6d65f"/>
  <rect x="638.0" y="566.0" width="8" height="8" fill="#a6d65f"/>
  <rect x="647.0" y="566.0" width="8" height="8" fill="#a6d65f"/>
  <rect x="368.0" y="575.0" width="8" height="8" fill="#a6d65f"/>
  <rect x="377.0" y="575.0" width="8" height="8" fill="#a6d65f"/>
  <rect x="386.0" y="575.0" width="8" height="8" fill="#a6d65f"/>
  <rect x="395.0" y="575.0" width="8" height="8" fill="#a6d65f"/>
  <rect x="404.0" y="575.0" width="8" height="8" fill="#a6d65f"/>
  <rect x="413.0" y="575.0" width="8" height="8" fill="#a6d65f"/>
  <rect x="422.0" y="575.0" width="8" height="8" fill="#a6d65f"/>
  <rect x="431.0" y="575.0" width="8" height="8" fill="#a6d65f"/>
  <rect x="440.0" y="575.0" width="8" height="8" fill="#a6d65f"/>
  <rect x="449.0" y="575.0" width="8" height="8" fill="#a6d65f"/>
  <rect x="458.0" y="575.0" width="8" height="8" fill="#a6d65f"/>
  <rect x="467.0" y="575.0" width="8" height="8" fill="#a6d65f"/>
  <rect x="476.0" y="575.0" width="8" height="8" fill="#a6d65f"/>
  <rect x="539.0" y="575.0" width="8" height="8" fill="#a6d65f"/>
  <rect x="548.0" y="575.0" width="8" height="8" fill="#a6d65f"/>
  <rect x="557.0" y="575.0" width="8" height="8" fill="#a6d65f"/>
  <rect x="566.0" y="575.0" width="8" height="8" fill="#a6d65f"/>
  <rect x="575.0" y="575.0" width="8" height="8" fill="#a6d65f"/>
  <rect x="584.0" y="575.0" width="8" height="8" fill="#a6d65f"/>
  <rect x="593.0" y="575.0" width="8" height="8" fill="#a6d65f"/>
  <rect x="602.0" y="575.0" width="8" height="8" fill="#a6d65f"/>
  <rect x="611.0" y="575.0" width="8" height="8" fill="#a6d65f"/>
  <rect x="620.0" y="575.0" width="8" height="8" fill="#a6d65f"/>
  <rect x="629.0" y="575.0" width="8" height="8" fill="#a6d65f"/>
  <rect x="638.0" y="575.0" width="8" height="8" fill="#a6d65f"/>
  <rect x="647.0" y="575.0" width="8" height="8" fill="#a6d65f"/>
  <rect x="368.0" y="584.0" width="8" height="8" fill="#a6d65f"/>
  <rect x="377.0" y="584.0" width="8" height="8" fill="#a6d65f"/>
  <rect x="386.0" y="584.0" width="8" height="8" fill="#a6d65f"/>
  <rect x="395.0" y="584.0" width="8" height="8" fill="#a6d65f"/>
  <rect x="404.0" y="584.0" width="8" height="8" fill="#a6d65f"/>
  <rect x="413.0" y="584.0" width="8" height="8" fill="#a6d65f"/>
  <rect x="422.0" y="584.0" width="8" height="8" fill="#a6d65f"/>
  <rect x="431.0" y="584.0" width="8" height="8" fill="#a6d65f"/>
  <rect x="440.0" y="584.0" width="8" height="8" fill="#a6d65f"/>
  <rect x="449.0" y="584.0" width="8" height="8" fill="#a6d65f"/>
  <rect x="458.0" y="584.0" width="8" height="8" fill="#a6d65f"/>
  <rect x="467.0" y="584.0" width="8" height="8" fill="#a6d65f"/>
  <rect x="476.0" y="584.0" width="8" height="8" fill="#a6d65f"/>
  <rect x="539.0" y="584.0" width="8" height="8" fill="#a6d65f"/>
  <rect x="548.0" y="584.0" width="8" height="8" fill="#a6d65f"/>
  <rect x="557.0" y="584.0" width="8" height="8" fill="#a6d65f"/>
  <rect x="566.0" y="584.0" width="8" height="8" fill="#a6d65f"/>
  <rect x="575.0" y="584.0" width="8" height="8" fill="#a6d65f"/>
  <rect x="584.0" y="584.0" width="8" height="8" fill="#a6d65f"/>
  <rect x="593.0" y="584.0" width="8" height="8" fill="#a6d65f"/>
  <rect x="602.0" y="584.0" width="8" height="8" fill="#a6d65f"/>
  <rect x="611.0" y="584.0" width="8" height="8" fill="#a6d65f"/>
  <rect x="620.0" y="584.0" width="8" height="8" fill="#a6d65f"/>
  <rect x="629.0" y="584.0" width="8" height="8" fill="#a6d65f"/>
  <rect x="638.0" y="584.0" width="8" height="8" fill="#a6d65f"/>
  <rect x="647.0" y="584.0" width="8" height="8" fill="#a6d65f"/>
  <rect x="368.0" y="611.0" width="8" height="8" fill="#a6d65f"/>
  <rect x="377.0" y="611.0" width="8" height="8" fill="#a6d65f"/>
  <rect x="386.0" y="611.0" width="8" height="8" fill="#a6d65f"/>
  <rect x="395.0" y="611.0" width="8" height="8" fill="#a6d65f"/>
  <rect x="404.0" y="611.0" width="8" height="8" fill="#a6d65f"/>
  <rect x="413.0" y="611.0" width="8" height="8" fill="#a6d65f"/>
  <rect x="422.0" y="611.0" width="8" height="8" fill="#a6d65f"/>
  <rect x="431.0" y="611.0" width="8" height="8" fill="#a6d65f"/>
  <rect x="440.0" y="611.0" width="8" height="8" fill="#a6d65f"/>
  <rect x="449.0" y="611.0" width="8" height="8" fill="#a6d65f"/>
  <rect x="458.0" y="611.0" width="8" height="8" fill="#a6d65f"/>
  <rect x="467.0" y="611.0" width="8" height="8" fill="#a6d65f"/>
  <rect x="476.0" y="611.0" width="8" height="8" fill="#a6d65f"/>
  <rect x="485.0" y="611.0" width="8" height="8" fill="#a6d65f"/>
  <rect x="494.0" y="611.0" width="8" height="8" fill="#a6d65f"/>
  <rect x="503.0" y="611.0" width="8" height="8" fill="#a6d65f"/>
  <rect x="512.0" y="611.0" width="8" height="8" fill="#a6d65f"/>
  <rect x="521.0" y="611.0" width="8" height="8" fill="#a6d65f"/>
  <rect x="530.0" y="611.0" width="8" height="8" fill="#a6d65f"/>
  <rect x="539.0" y="611.0" width="8" height="8" fill="#a6d65f"/>
  <rect x="548.0" y="611.0" width="8" height="8" fill="#a6d65f"/>
  <rect x="557.0" y="611.0" width="8" height="8" fill="#a6d65f"/>
  <rect x="566.0" y="611.0" width="8" height="8" fill="#a6d65f"/>
  <rect x="575.0" y="611.0" width="8" height="8" fill="#a6d65f"/>
  <rect x="584.0" y="611.0" width="8" height="8" fill="#a6d65f"/>
  <rect x="593.0" y="611.0" width="8" height="8" fill="#a6d65f"/>
  <rect x="602.0" y="611.0" width="8" height="8" fill="#a6d65f"/>
  <rect x="611.0" y="611.0" width="8" height="8" fill="#a6d65f"/>
  <rect x="620.0" y="611.0" width="8" height="8" fill="#a6d65f"/>
  <rect x="629.0" y="611.0" width="8" height="8" fill="#a6d65f"/>
  <rect x="638.0" y="611.0" width="8" height="8" fill="#a6d65f"/>
  <rect x="647.0" y="611.0" width="8" height="8" fill="#a6d65f"/>
  <rect x="368.0" y="620.0" width="8" height="8" fill="#a6d65f"/>
  <rect x="377.0" y="620.0" width="8" height="8" fill="#a6d65f"/>
  <rect x="386.0" y="620.0" width="8" height="8" fill="#a6d65f"/>
  <rect x="395.0" y="620.0" width="8" height="8" fill="#a6d65f"/>
  <rect x="404.0" y="620.0" width="8" height="8" fill="#a6d65f"/>
  <rect x="413.0" y="620.0" width="8" height="8" fill="#a6d65f"/>
  <rect x="422.0" y="620.0" width="8" height="8" fill="#a6d65f"/>
  <rect x="431.0" y="620.0" width="8" height="8" fill="#a6d65f"/>
  <rect x="440.0" y="620.0" width="8" height="8" fill="#a6d65f"/>
  <rect x="449.0" y="620.0" width="8" height="8" fill="#a6d65f"/>
  <rect x="458.0" y="620.0" width="8" height="8" fill="#a6d65f"/>
  <rect x="467.0" y="620.0" width="8" height="8" fill="#a6d65f"/>
  <rect x="476.0" y="620.0" width="8" height="8" fill="#a6d65f"/>
  <rect x="485.0" y="620.0" width="8" height="8" fill="#a6d65f"/>
  <rect x="494.0" y="620.0" width="8" height="8" fill="#a6d65f"/>
  <rect x="503.0" y="620.0" width="8" height="8" fill="#a6d65f"/>
  <rect x="512.0" y="620.0" width="8" height="8" fill="#a6d65f"/>
  <rect x="521.0" y="620.0" width="8" height="8" fill="#a6d65f"/>
  <rect x="530.0" y="620.0" width="8" height="8" fill="#a6d65f"/>
  <rect x="539.0" y="620.0" width="8" height="8" fill="#a6d65f"/>
  <rect x="548.0" y="620.0" width="8" height="8" fill="#a6d65f"/>
  <rect x="557.0" y="620.0" width="8" height="8" fill="#a6d65f"/>
  <rect x="566.0" y="620.0" width="8" height="8" fill="#a6d65f"/>
  <rect x="575.0" y="620.0" width="8" height="8" fill="#a6d65f"/>
  <rect x="584.0" y="620.0" width="8" height="8" fill="#a6d65f"/>
  <rect x="593.0" y="620.0" width="8" height="8" fill="#a6d65f"/>
  <rect x="602.0" y="620.0" width="8" height="8" fill="#a6d65f"/>
  <rect x="611.0" y="620.0" width="8" height="8" fill="#a6d65f"/>
  <rect x="620.0" y="620.0" width="8" height="8" fill="#a6d65f"/>
  <rect x="629.0" y="620.0" width="8" height="8" fill="#a6d65f"/>
  <rect x="638.0" y="620.0" width="8" height="8" fill="#a6d65f"/>
  <rect x="647.0" y="620.0" width="8" height="8" fill="#a6d65f"/>
  <rect x="368.0" y="629.0" width="8" height="8" fill="#a6d65f"/>
  <rect x="377.0" y="629.0" width="8" height="8" fill="#a6d65f"/>
  <rect x="386.0" y="629.0" width="8" height="8" fill="#a6d65f"/>
  <rect x="395.0" y="629.0" width="8" height="8" fill="#a6d65f"/>
  <rect x="404.0" y="629.0" width="8" height="8" fill="#a6d65f"/>
  <rect x="413.0" y="629.0" width="8" height="8" fill="#a6d65f"/>
  <rect x="422.0" y="629.0" width="8" height="8" fill="#a6d65f"/>
  <rect x="431.0" y="629.0" width="8" height="8" fill="#a6d65f"/>
  <rect x="440.0" y="629.0" width="8" height="8" fill="#a6d65f"/>
  <rect x="449.0" y="629.0" width="8" height="8" fill="#a6d65f"/>
  <rect x="458.0" y="629.0" width="8" height="8" fill="#a6d65f"/>
  <rect x="467.0" y="629.0" width="8" height="8" fill="#a6d65f"/>
  <rect x="476.0" y="629.0" width="8" height="8" fill="#a6d65f"/>
  <rect x="485.0" y="629.0" width="8" height="8" fill="#a6d65f"/>
  <rect x="494.0" y="629.0" width="8" height="8" fill="#a6d65f"/>
  <rect x="503.0" y="629.0" width="8" height="8" fill="#a6d65f"/>
  <rect x="512.0" y="629.0" width="8" height="8" fill="#a6d65f"/>
  <rect x="521.0" y="629.0" width="8" height="8" fill="#a6d65f"/>
  <rect x="530.0" y="629.0" width="8" height="8" fill="#a6d65f"/>
  <rect x="539.0" y="629.0" width="8" height="8" fill="#a6d65f"/>
  <rect x="548.0" y="629.0" width="8" height="8" fill="#a6d65f"/>
  <rect x="557.0" y="629.0" width="8" height="8" fill="#a6d65f"/>
  <rect x="566.0" y="629.0" width="8" height="8" fill="#a6d65f"/>
  <rect x="575.0" y="629.0" width="8" height="8" fill="#a6d65f"/>
  <rect x="584.0" y="629.0" width="8" height="8" fill="#a6d65f"/>
  <rect x="593.0" y="629.0" width="8" height="8" fill="#a6d65f"/>
  <rect x="602.0" y="629.0" width="8" height="8" fill="#a6d65f"/>
  <rect x="611.0" y="629.0" width="8" height="8" fill="#a6d65f"/>
  <rect x="620.0" y="629.0" width="8" height="8" fill="#a6d65f"/>
  <rect x="629.0" y="629.0" width="8" height="8" fill="#a6d65f"/>
  <rect x="638.0" y="629.0" width="8" height="8" fill="#a6d65f"/>
  <rect x="647.0" y="629.0" width="8" height="8" fill="#a6d65f"/>
</svg>
