<svg xmlns="http://www.w3.org/2000/svg" width="1080" height="1080" viewBox="0 0 1080 1080" role="img" aria-labelledby="title desc">
  <title id="title">Spiral Out</title>
  <desc id="desc">Dotted spiral mark next to the 'spiral out' wordmark on a dark atmospheric background with a subtle radial gradient.</desc>

  <defs>
    <!-- Mirrors the home page CSS:
           radial-gradient(ellipse at 30% 20%, rgba(80,60,90,0.15) 0%, transparent 50%),
           radial-gradient(ellipse at 70% 80%, rgba(40,50,80,0.12) 0%, transparent 55%)
         Ellipses sized larger than the spec because rsvg + JPG flatten the
         softest tail of the gradient — slightly higher alpha + wider falloff
         keeps it perceptible without becoming heavy. -->
    <radialGradient id="haze-purple" cx="30%" cy="20%" r="65%" fx="30%" fy="20%">
      <stop offset="0%"   stop-color="#503c5a" stop-opacity="0.35" />
      <stop offset="50%"  stop-color="#503c5a" stop-opacity="0.08" />
      <stop offset="100%" stop-color="#503c5a" stop-opacity="0" />
    </radialGradient>
    <radialGradient id="haze-blue" cx="70%" cy="80%" r="65%" fx="70%" fy="80%">
      <stop offset="0%"   stop-color="#283250" stop-opacity="0.30" />
      <stop offset="55%"  stop-color="#283250" stop-opacity="0.06" />
      <stop offset="100%" stop-color="#283250" stop-opacity="0" />
    </radialGradient>
    <filter id="glow" x="-50%" y="-50%" width="200%" height="200%">
      <feGaussianBlur stdDeviation="6" result="blur" />
      <feColorMatrix in="blur" type="matrix"
        values="1 0 0 0 0
                0 1 0 0 0
                0 0 1 0 0
                0 0 0 0.40 0" result="softGlow" />
      <feMerge>
        <feMergeNode in="softGlow" />
        <feMergeNode in="SourceGraphic" />
      </feMerge>
    </filter>
  </defs>

  <rect width="1080" height="1080" fill="#0a0a0c" />
  <rect width="1080" height="1080" fill="url(#haze-purple)" />
  <rect width="1080" height="1080" fill="url(#haze-blue)" />

  <g transform="translate(479.944669863519 537.6549243821468) scale(9.959424566580598)" filter="url(#glow)" fill="#8a7a90" fill-opacity="0.78">
    <circle cx="0.40" cy="0.00" r="0.40"/>
    <circle cx="0.40" cy="0.13" r="0.41"/>
    <circle cx="0.36" cy="0.26" r="0.42"/>
    <circle cx="0.28" cy="0.38" r="0.42"/>
    <circle cx="0.15" cy="0.48" r="0.43"/>
    <circle cx="0.00" cy="0.53" r="0.44"/>
    <circle cx="-0.17" cy="0.53" r="0.45"/>
    <circle cx="-0.35" cy="0.48" r="0.45"/>
    <circle cx="-0.51" cy="0.37" r="0.46"/>
    <circle cx="-0.63" cy="0.21" r="0.47"/>
    <circle cx="-0.70" cy="0.00" r="0.48"/>
    <circle cx="-0.71" cy="-0.23" r="0.48"/>
    <circle cx="-0.64" cy="-0.46" r="0.49"/>
    <circle cx="-0.49" cy="-0.67" r="0.50"/>
    <circle cx="-0.27" cy="-0.84" r="0.51"/>
    <circle cx="-0.00" cy="-0.93" r="0.51"/>
    <circle cx="0.31" cy="-0.94" r="0.52"/>
    <circle cx="0.61" cy="-0.85" r="0.53"/>
    <circle cx="0.90" cy="-0.65" r="0.54"/>
    <circle cx="1.11" cy="-0.36" r="0.54"/>
    <circle cx="1.24" cy="-0.00" r="0.55"/>
    <circle cx="1.25" cy="0.41" r="0.56"/>
    <circle cx="1.12" cy="0.82" r="0.57"/>
    <circle cx="0.86" cy="1.19" r="0.57"/>
    <circle cx="0.48" cy="1.48" r="0.58"/>
    <circle cx="0.00" cy="1.64" r="0.59"/>
    <circle cx="-0.54" cy="1.65" r="0.59"/>
    <circle cx="-1.08" cy="1.49" r="0.60"/>
    <circle cx="-1.58" cy="1.15" r="0.61"/>
    <circle cx="-1.96" cy="0.64" r="0.62"/>
    <circle cx="-2.18" cy="0.00" r="0.62"/>
    <circle cx="-2.20" cy="-0.71" r="0.63"/>
    <circle cx="-1.98" cy="-1.44" r="0.64"/>
    <circle cx="-1.52" cy="-2.09" r="0.65"/>
    <circle cx="-0.85" cy="-2.60" r="0.66"/>
    <circle cx="-0.00" cy="-2.89" r="0.66"/>
    <circle cx="0.95" cy="-2.91" r="0.67"/>
    <circle cx="1.91" cy="-2.62" r="0.68"/>
    <circle cx="2.77" cy="-2.02" r="0.69"/>
    <circle cx="3.45" cy="-1.12" r="0.69"/>
    <circle cx="3.84" cy="-0.00" r="0.70"/>
    <circle cx="3.87" cy="1.26" r="0.71"/>
    <circle cx="3.48" cy="2.53" r="0.72"/>
    <circle cx="2.67" cy="3.68" r="0.72"/>
    <circle cx="1.49" cy="4.58" r="0.73"/>
    <circle cx="0.00" cy="5.10" r="0.74"/>
    <circle cx="-1.67" cy="5.13" r="0.74"/>
    <circle cx="-3.35" cy="4.62" r="0.75"/>
    <circle cx="-4.88" cy="3.55" r="0.76"/>
    <circle cx="-6.08" cy="1.97" r="0.77"/>
    <circle cx="-6.76" cy="0.00" r="0.78"/>
    <circle cx="-6.80" cy="-2.21" r="0.78"/>
    <circle cx="-6.12" cy="-4.45" r="0.79"/>
    <circle cx="-4.71" cy="-6.48" r="0.80"/>
    <circle cx="-2.62" cy="-8.06" r="0.81"/>
    <circle cx="-0.00" cy="-8.97" r="0.81"/>
    <circle cx="2.93" cy="-9.03" r="0.82"/>
    <circle cx="5.90" cy="-8.13" r="0.83"/>
    <circle cx="8.60" cy="-6.25" r="0.83"/>
    <circle cx="10.70" cy="-3.48" r="0.84"/>
    <circle cx="11.90" cy="-0.00" r="0.85"/>
    <circle cx="11.98" cy="3.89" r="0.86"/>
    <circle cx="10.78" cy="7.83" r="0.86"/>
    <circle cx="8.29" cy="11.41" r="0.87"/>
    <circle cx="4.61" cy="14.19" r="0.88"/>
    <circle cx="-0.00" cy="15.79" r="0.89"/>
    <circle cx="-5.16" cy="15.89" r="0.90"/>
    <circle cx="-10.39" cy="14.30" r="0.90"/>
    <circle cx="-15.14" cy="11.00" r="0.91"/>
    <circle cx="-18.83" cy="6.12" r="0.92"/>
    <circle cx="-20.95" cy="0.00" r="0.93"/>
    <circle cx="-21.08" cy="-6.85" r="0.93"/>
    <circle cx="-18.98" cy="-13.79" r="0.94"/>
    <circle cx="-14.59" cy="-20.08" r="0.95"/>
    <circle cx="-8.12" cy="-24.98" r="0.96"/>
    <circle cx="-0.00" cy="-27.80" r="0.96"/>
    <circle cx="9.09" cy="-27.97" r="0.97"/>
    <circle cx="18.29" cy="-25.18" r="0.98"/>
    <circle cx="26.64" cy="-19.36" r="0.98"/>
    <circle cx="33.14" cy="-10.77" r="0.99"/>
  </g>
  <text x="540.0" y="814.1601807451125" font-family="'Courier New', Courier, ui-monospace, monospace" font-weight="300" font-size="45" letter-spacing="18.0" fill="#cfcfd2" text-anchor="middle" xml:space="preserve">s p i r a l   o u t</text>
</svg>
